<svg width="595" height="166" viewBox="0 0 595 166" fill="none" xmlns="http://www.w3.org/2000/svg">
<path d="M-3 127.228C-3 127.228 58.9371 58.2626 103.406 74.1022C136.05 85.73 116.378 131.002 150.224 139.834C188.57 149.839 197.702 98.4026 237.477 93.9116C275.047 89.6696 302.644 100.938 339.626 93.9116C382.345 85.7951 367.138 22.7968 409.854 14.6736C443.495 8.27636 461.576 30.0796 496.043 30.8814C535.39 31.7968 595 14.6736 595 14.6736V278.5H-3V127.228Z" fill="#F9DCC4"/>
<path d="M-9.5 120.5C-9.5 120.5 53.9781 54.6278 98 69.5C133.225 81.4002 119.331 138.857 156 145C193.392 151.264 199.984 101.841 236 90C283.579 74.3573 322.617 126.212 364 98C396.973 75.5205 371.627 19.0775 409.5 6.5C443.774 -4.88221 459.518 37.4146 495.5 40.5C544.165 44.6729 614.5 2 614.5 2" stroke="#FD8087" stroke-width="3"/>
</svg>
