<svg width="478" height="212" viewBox="0 0 478 212" fill="none" xmlns="http://www.w3.org/2000/svg">
<path d="M471 97.2613C471 97.2613 440.26 54.4858 406.5 66.5C381.716 75.3196 358.696 103.801 333 110.5C303.888 118.089 308.697 56.4063 278.5 53C249.977 49.7824 217.577 71.8297 189.5 66.5C157.068 60.3437 167.93 10.6613 135.5 4.49998C109.96 -0.352292 83.1671 32.3918 57 33C27.1274 33.6943 17 11.8902 17 11.8902V212H471V97.2613Z" fill="#FFF8F7"/>
<path d="M476 92.9814C476 92.9814 464.94 51.207 431.5 62.5C404.743 71.5362 373.855 96.8354 346 101.5C317.596 106.256 290.359 58.4914 263 49.5C226.858 37.622 223.435 83.9227 192 62.5C166.953 45.4305 168.269 12.5505 139.5 2.99998C113.465 -5.64295 104.333 37.6571 77 40C40.033 43.1686 2 3.00002 2 3.00002" stroke="#FD8087" stroke-width="3"/>
</svg>
