<svg width="296" height="200" viewBox="0 0 296 200" fill="none" xmlns="http://www.w3.org/2000/svg">
<path d="M278.014 143.625C276.085 143.625 274.362 144.288 272.846 145.614C271.33 146.871 270.572 148.686 270.572 151.06C270.572 153.433 271.365 155.668 272.95 157.762C274.603 159.856 276.602 161.706 278.945 163.312C281.288 164.848 283.631 166.454 285.974 168.129C288.385 169.735 290.487 171.76 292.279 174.203C294.071 176.577 295.07 179.23 295.276 182.162C295.276 187.189 293.14 191.412 288.868 194.833C284.595 198.254 279.289 199.964 272.95 199.964C266.61 199.964 261.614 198.673 257.962 196.09C254.378 193.507 252.587 190.54 252.587 187.189C252.587 183.837 253.586 181.15 255.584 179.125C257.652 177.031 260.201 175.983 263.233 175.983C264.818 175.983 266.3 176.263 267.678 176.821C265.473 179.195 264.37 181.708 264.37 184.361C264.37 187.014 265.094 189.143 266.541 190.749C267.988 192.355 269.952 193.158 272.433 193.158C274.914 193.158 276.981 192.529 278.635 191.273C280.357 189.946 281.219 188.271 281.219 186.246C281.219 184.152 280.633 182.302 279.462 180.696C278.29 179.09 276.809 177.694 275.017 176.507C273.294 175.25 271.399 173.854 269.332 172.318C267.265 170.782 265.335 169.246 263.543 167.71C261.821 166.105 260.373 164.115 259.202 161.741C258.031 159.298 257.445 156.645 257.445 153.783C257.445 148.826 259.443 144.777 263.44 141.635C267.506 138.423 272.536 136.818 278.531 136.818C284.595 136.818 289.006 138.005 291.762 140.378C294.587 142.752 296 145.545 296 148.756C296 151.898 295.001 154.585 293.002 156.819C291.073 159.054 288.558 160.171 285.457 160.171C283.941 160.171 282.218 159.856 280.289 159.228C281.805 157.902 282.976 156.401 283.803 154.725C284.63 152.98 285.043 151.269 285.043 149.594C285.043 147.918 284.354 146.522 282.976 145.405C281.598 144.218 279.944 143.625 278.014 143.625Z" fill="#790000"/>
<path d="M218.581 168.486C218.581 175.165 220.602 178.505 224.643 178.505C226.776 178.505 228.853 177.355 230.873 175.053C232.894 172.752 234.522 169.665 235.757 165.792C237.048 161.919 238.142 157.793 239.04 153.415C239.995 148.981 240.696 144.294 241.145 139.354C241.931 129.812 242.324 122.375 242.324 117.042C242.324 111.654 242.099 107.613 241.65 104.918C245.692 105.816 248.526 107.725 250.154 110.644C251.782 113.562 252.596 117.239 252.596 121.673C252.596 126.107 251.642 134.359 249.733 146.427C247.881 158.495 246.955 167.307 246.955 172.864C246.955 178.421 247.207 183.136 247.712 187.009C243.727 185.942 240.977 184.034 239.461 181.284C238.002 178.477 237.272 174.969 237.272 170.759C235.532 175.586 232.922 179.403 229.442 182.21C225.962 185.016 222.37 186.42 218.665 186.42C214.96 186.42 211.929 185.016 209.572 182.21C207.271 179.347 206.12 175.165 206.12 169.665C206.12 160.964 208.505 153.499 213.276 147.269C218.048 140.982 223.689 137.839 230.2 137.839C232.052 137.839 234.971 138.288 238.956 139.186C235.476 140.084 232.361 141.656 229.61 143.901C226.916 146.09 224.811 148.616 223.296 151.478C220.152 157.148 218.581 162.817 218.581 168.486Z" fill="#790000"/>
<path d="M188.104 136.913C191.416 136.913 193.773 137.951 195.176 140.028C196.636 142.049 197.366 144.827 197.366 148.363C197.366 151.843 196.804 156.755 195.682 163.097C194.615 169.44 194.082 174.071 194.082 176.99C194.082 179.852 194.447 181.957 195.176 183.304C195.906 184.595 197.141 185.718 198.881 186.672C198.151 186.728 197.113 186.756 195.766 186.756C191.051 186.756 187.683 186.027 185.662 184.567C183.698 183.108 182.716 180.554 182.716 176.905C182.716 174.829 183.277 170.787 184.399 164.781C185.522 158.719 186.083 154.201 186.083 151.226C186.083 147.521 184.961 145.669 182.716 145.669C181.425 145.669 179.965 146.427 178.337 147.942C176.71 149.458 175.138 151.535 173.622 154.173C172.107 156.755 170.844 160.094 169.834 164.192C168.823 168.289 168.318 172.387 168.318 176.484C168.318 180.526 168.486 183.529 168.823 185.493C167.027 185.606 165.848 185.662 165.287 185.662C162.088 185.662 159.786 185.101 158.383 183.978C156.98 182.855 156.278 181.003 156.278 178.421C156.278 177.298 156.867 172.976 158.046 165.455C159.225 157.933 159.814 151.956 159.814 147.521C159.814 143.031 159.337 138.905 158.383 135.144C162.481 136.435 165.343 138.288 166.971 140.701C168.599 143.059 169.413 145.781 169.413 148.868C169.413 151.899 169.076 155.436 168.402 159.477C170.255 153.19 173.173 147.858 177.159 143.48C181.144 139.102 184.792 136.913 188.104 136.913Z" fill="#790000"/>
<path d="M127.772 164.781C125.078 164.781 122.44 164.473 119.858 163.855C119.801 164.416 119.773 165.286 119.773 166.465C119.773 171.124 120.643 174.632 122.383 176.99C124.123 179.347 126.2 180.526 128.614 180.526C131.028 180.526 133.329 179.796 135.518 178.337C137.707 176.877 139.615 174.857 141.243 172.275C143.264 172.724 144.274 173.762 144.274 175.39C139.335 182.968 132.964 186.756 125.162 186.756C120.447 186.756 116.321 184.96 112.785 181.368C109.249 177.719 107.481 172.668 107.481 166.213C107.481 161.385 108.407 156.811 110.259 152.489C112.112 148.111 115.058 144.434 119.1 141.459C123.141 138.428 127.604 136.913 132.487 136.913C137.426 136.913 141.047 138.035 143.348 140.28C145.649 142.526 146.8 145.472 146.8 149.121C146.8 154.397 144.948 158.326 141.243 160.908C137.595 163.49 133.104 164.781 127.772 164.781ZM131.308 142.133C128.446 142.133 126.032 143.901 124.067 147.437C122.103 150.973 120.812 155.267 120.194 160.319H121.457C126.341 160.319 129.933 159.056 132.234 156.53C134.592 154.004 135.771 150.973 135.771 147.437C135.771 145.978 135.378 144.743 134.592 143.732C133.862 142.666 132.768 142.133 131.308 142.133Z" fill="#790000"/>
<path d="M97.8583 143.648C97.8583 144.49 97.1566 148.924 95.7534 156.951C94.4062 164.922 93.7046 171.517 93.6485 176.737C93.6485 181.901 93.9853 185.241 94.6588 186.756C90.2807 185.634 87.3338 183.95 85.8183 181.705C84.3028 179.403 83.545 176.064 83.545 171.685C83.545 169.328 83.9941 165.062 84.8921 158.888C85.7902 152.713 86.2393 147.914 86.2393 144.49C86.2393 141.066 86.0709 138.428 85.7341 136.576C86.969 136.464 88.1196 136.407 89.1861 136.407C92.4417 136.407 94.6869 136.969 95.9218 138.091C97.2128 139.158 97.8583 141.01 97.8583 143.648ZM99.1212 128.998C97.5495 129.223 96.1744 129.335 94.9956 129.335C89.2142 129.335 86.3235 127.314 86.3235 123.273C86.3235 121.813 86.7444 119.821 87.5864 117.295C89.158 117.07 90.5332 116.958 91.712 116.958C97.4934 116.958 100.384 118.979 100.384 123.02C100.384 124.48 99.9632 126.472 99.1212 128.998Z" fill="#790000"/>
<path d="M55.5171 158.13C57.5378 150.833 59.9514 145.472 62.7579 142.049C65.6205 138.568 68.2587 136.828 70.6723 136.828C73.142 136.828 74.9943 137.755 76.2292 139.607C77.464 141.403 78.0815 143.76 78.0815 146.679C78.0815 149.542 77.2115 152.18 75.4714 154.594C73.7875 157.007 71.4581 158.214 68.4832 158.214C67.6974 158.214 66.7712 157.99 65.7047 157.54C67.4448 155.351 68.3148 152.713 68.3148 149.626C68.3148 147.83 67.5851 146.932 66.1257 146.932C65.0592 146.932 63.9086 147.69 62.6737 149.205C61.4388 150.665 60.2601 152.713 59.1375 155.351C58.0149 157.933 57.0607 161.273 56.2748 165.371C55.5451 169.412 55.1803 173.734 55.1803 178.337C55.1803 178.898 55.3206 181.284 55.6013 185.493C53.8051 185.606 52.6544 185.662 52.1492 185.662C48.9498 185.662 46.6485 185.101 45.2452 183.978C43.842 182.855 43.1403 181.003 43.1403 178.421C43.1403 177.298 43.7297 172.976 44.9084 165.455C46.0872 157.933 46.6765 151.956 46.6765 147.521C46.6765 143.031 46.1994 138.905 45.2452 135.144C49.3427 136.435 52.2054 138.288 53.8332 140.701C55.4609 143.059 56.2748 145.837 56.2748 149.037C56.2748 152.18 56.0222 155.211 55.5171 158.13Z" fill="#790000"/>
<path d="M34.8284 150.592L24.9655 150.489C22.1573 150.489 19.9998 150.524 18.493 150.592C17.3971 160.223 16.8491 168.03 16.8491 174.014C16.8491 179.999 17.0546 184.195 17.4656 186.603C15.2738 186.74 13.8355 186.809 13.1505 186.809C9.24648 186.809 6.43829 186.121 4.72598 184.745C3.01367 183.37 2.15751 180.962 2.15751 177.523C2.15751 174.014 3.11641 165.657 5.03419 152.45C2.84244 153.138 1.23286 153.722 0.205478 154.204C0.0684926 152.69 0 151.555 0 150.799C0 146.052 2.15751 143.095 6.47253 141.925C7.77389 132.501 8.56155 124.35 8.83552 117.471C5.34241 117.471 3.11641 116.99 2.15751 116.027C1.26711 115.064 0.821909 112.931 0.821909 109.63C1.09588 106.534 1.36985 104.505 1.64382 103.542C9.38346 104.574 17.8765 105.09 27.123 105.09C36.3695 105.09 45.3077 104.264 53.9378 102.613C52.9789 109.836 48.5954 114.17 40.7872 115.614C36.5407 116.44 30.4791 116.99 22.6025 117.265C22.534 118.159 21.5409 126.173 19.6231 141.306C23.5956 141.444 26.3011 141.513 27.7394 141.513C34.2462 141.513 38.8694 140.378 41.6091 138.108C41.7461 139.483 41.8146 140.515 41.8146 141.203C41.8146 147.463 39.4859 150.592 34.8284 150.592Z" fill="#790000"/>
<path d="M258.311 48.5704C258.031 50.5911 257.441 54.0992 256.543 59.0948C254.635 69.7035 253.681 77.5617 253.681 82.6696C253.681 87.7775 254.073 91.2014 254.859 92.9415C250.537 91.8189 247.562 90.1069 245.935 87.8055C244.307 85.448 243.493 82.1364 243.493 77.8705C243.493 74.1097 244.082 68.9738 245.261 62.4627C246.44 55.8954 247.197 51.4611 247.534 49.1598C244.615 49.6649 241.5 50.6472 238.189 52.1066C238.076 50.8717 238.02 49.9456 238.02 49.3282C238.02 46.3532 238.918 44.3326 240.714 43.2661C242.511 42.1435 245.093 41.5541 248.46 41.498C248.853 37.2882 249.05 34.2572 249.05 32.4048C249.05 30.5525 249.022 29.009 248.966 27.7741C248.966 26.5392 248.966 25.6131 248.966 24.9956C252.67 25.3886 255.364 26.5112 257.048 28.3635C258.732 30.1596 259.574 32.7416 259.574 36.1095C259.574 37.4566 259.434 39.3369 259.153 41.7506C263.868 41.6383 267.32 40.7121 269.509 38.9721C269.622 40.0947 269.678 40.9367 269.678 41.498C269.678 44.1922 269.201 46.0726 268.246 47.1391C267.292 48.1494 265.692 48.6546 263.447 48.6546C261.202 48.6546 259.49 48.6265 258.311 48.5704Z" fill="#790000"/>
<path d="M212.461 67.4302C209.767 67.4302 207.128 67.1215 204.546 66.504C204.49 67.0653 204.462 67.9354 204.462 69.1141C204.462 73.7729 205.332 77.2811 207.072 79.6385C208.812 81.996 210.889 83.1748 213.303 83.1748C215.716 83.1748 218.018 82.4451 220.207 80.9857C222.396 79.5263 224.304 77.5056 225.932 74.9236C227.953 75.3726 228.963 76.4111 228.963 78.0388C224.024 85.6164 217.653 89.4052 209.851 89.4052C205.136 89.4052 201.01 87.6091 197.474 84.0167C193.938 80.3682 192.17 75.3165 192.17 68.8615C192.17 64.0343 193.096 59.4597 194.948 55.1376C196.8 50.7595 199.747 47.0829 203.789 44.108C207.83 41.077 212.292 39.5615 217.176 39.5615C222.115 39.5615 225.736 40.6841 228.037 42.9293C230.338 45.1745 231.489 48.1213 231.489 51.7698C231.489 57.0461 229.637 60.9752 225.932 63.5572C222.284 66.1392 217.793 67.4302 212.461 67.4302ZM215.997 44.7816C213.134 44.7816 210.721 46.5497 208.756 50.0859C206.792 53.6221 205.501 57.9161 204.883 62.9678H206.146C211.03 62.9678 214.622 61.7049 216.923 59.179C219.281 56.6532 220.459 53.6221 220.459 50.0859C220.459 48.6265 220.067 47.3916 219.281 46.3813C218.551 45.3148 217.456 44.7816 215.997 44.7816Z" fill="#790000"/>
<path d="M165.348 67.4302C162.653 67.4302 160.015 67.1215 157.433 66.504C157.377 67.0653 157.349 67.9354 157.349 69.1141C157.349 73.7729 158.219 77.2811 159.959 79.6385C161.699 81.996 163.776 83.1748 166.189 83.1748C168.603 83.1748 170.904 82.4451 173.094 80.9857C175.283 79.5263 177.191 77.5056 178.819 74.9236C180.84 75.3726 181.85 76.4111 181.85 78.0388C176.91 85.6164 170.54 89.4052 162.737 89.4052C158.023 89.4052 153.897 87.6091 150.361 84.0167C146.825 80.3682 145.056 75.3165 145.056 68.8615C145.056 64.0343 145.983 59.4597 147.835 55.1376C149.687 50.7595 152.634 47.0829 156.675 44.108C160.717 41.077 165.179 39.5615 170.062 39.5615C175.002 39.5615 178.622 40.6841 180.924 42.9293C183.225 45.1745 184.376 48.1213 184.376 51.7698C184.376 57.0461 182.523 60.9752 178.819 63.5572C175.17 66.1392 170.68 67.4302 165.348 67.4302ZM168.884 44.7816C166.021 44.7816 163.607 46.5497 161.643 50.0859C159.678 53.6221 158.387 57.9161 157.77 62.9678H159.033C163.916 62.9678 167.509 61.7049 169.81 59.179C172.167 56.6532 173.346 53.6221 173.346 50.0859C173.346 48.6265 172.953 47.3916 172.167 46.3813C171.438 45.3148 170.343 44.7816 168.884 44.7816Z" fill="#790000"/>
<path d="M122.193 88.1423C120.789 88.9281 119.049 89.321 116.973 89.321C114.952 89.321 113.829 88.9001 113.605 88.0581C112.594 83.4554 111.696 78.3476 110.911 72.7345C110.125 67.1215 109.62 63.5572 109.395 62.0417C103.501 74.222 99.5441 82.9222 97.5234 88.1423C96.1763 88.9281 94.4643 89.321 92.3875 89.321C90.3107 89.321 89.16 88.9001 88.9355 88.0581C88.0935 84.4658 87.1954 79.1053 86.2412 71.9768C85.287 64.7921 84.2767 58.5335 83.2102 53.2012C82.1437 47.8126 80.7966 43.7432 79.1688 40.9928C82.256 39.5334 84.6415 38.8037 86.3254 38.8037C88.0655 38.8037 89.3284 39.1124 90.1142 39.7299C90.9562 40.2912 91.6297 41.2454 92.1349 42.5925C92.6962 43.8835 93.1453 45.2868 93.482 46.8023C93.8188 48.3178 94.0995 50.2824 94.324 52.696C94.5485 55.0535 94.745 57.3267 94.9134 59.5158C95.5308 67.767 96.036 73.4362 96.4289 76.5233C101.368 64.7359 104.848 55.5025 106.869 48.823C105.971 45.5674 104.961 42.9574 103.838 40.9928C106.925 39.5334 109.311 38.8037 110.995 38.8037C112.735 38.8037 113.998 39.1124 114.784 39.7299C115.625 40.2912 116.299 41.2454 116.804 42.5925C117.366 43.8835 117.815 45.2868 118.151 46.8023C118.488 48.3178 118.769 50.2824 118.993 52.696C119.218 55.0535 119.414 57.3267 119.583 59.5158C120.2 67.767 120.705 73.4362 121.098 76.5233C129.405 56.99 133.643 44.0519 133.812 37.7092C138.246 40.0666 140.463 42.4802 140.463 44.95C140.463 47.3636 139.369 51.0963 137.18 56.148C134.99 61.1436 132.268 66.925 129.013 73.4923C125.757 80.0034 123.484 84.8867 122.193 88.1423Z" fill="#790000"/>
<path d="M57.3363 8.02536C54.0474 8.02536 51.3067 9.03757 49.1141 11.062C46.9215 13.0141 45.8252 15.7977 45.8252 19.4127C45.8252 23.0277 46.7388 26.2812 48.5659 29.1733C50.4662 31.993 52.7684 34.4151 55.4726 36.4395C58.2499 38.3916 61.2464 40.5245 64.4622 42.8381C67.7511 45.1517 70.7476 47.3569 73.4518 49.4536C76.2291 51.478 78.5314 54.0085 80.3585 57.0451C82.2588 60.0818 83.2089 63.2991 83.2089 66.6973C83.2089 73.4212 80.4316 79.133 74.877 83.8325C69.3225 88.4597 62.0138 90.7733 52.9511 90.7733C43.9615 90.7733 36.8355 88.8574 31.5733 85.0254C26.3111 81.1935 23.68 76.8555 23.68 72.0113C23.68 67.1672 25.1417 63.4076 28.0652 60.7325C30.9886 57.985 34.7526 56.6113 39.357 56.6113C40.6726 56.6113 41.9151 56.7559 43.0844 57.0451C40.8188 60.371 39.6859 63.986 39.6859 67.8902C39.6859 71.7221 40.8918 75.048 43.3037 77.8677C45.7155 80.6151 48.8948 81.9888 52.8415 81.9888C56.8612 81.9888 60.2232 80.9766 62.9274 78.9522C65.6316 76.8555 66.9837 74.2165 66.9837 71.0353C66.9837 67.7818 66.0701 64.9259 64.243 62.4677C62.4158 60.0095 60.1501 57.9127 57.4459 56.1775C54.7417 54.37 51.7817 52.3456 48.5659 50.1043C45.3501 47.7907 42.3901 45.477 39.6859 43.1634C36.9817 40.8498 34.716 37.9216 32.8889 34.3789C31.0617 30.7639 30.1481 26.8235 30.1481 22.5578C30.1481 15.6892 32.6696 10.2305 37.7126 6.18169C42.7555 2.06056 49.5526 0 58.1037 0C66.6548 0 73.123 1.91596 77.5081 5.74789C81.9664 9.50752 84.1955 13.5564 84.1955 17.8944C84.1955 22.1601 82.8069 25.7751 80.0296 28.7395C77.2523 31.6315 73.4884 33.0775 68.7378 33.0775C67.1299 33.0775 65.5585 32.9329 64.0237 32.6437C67.6049 28.8841 69.3956 24.9437 69.3956 20.8226C69.3956 16.6291 68.2262 13.4479 65.8874 11.2789C63.5486 9.10987 60.6983 8.02536 57.3363 8.02536Z" fill="#790000"/>
</svg>
